# xmcd
#
# Track frame offsets:
# 150
# 17983
# 40691
# 63346
# 85988
# 107513
# 127170
# 147599
# 174505
# 192866
# 213727
#
# Disc length: 3139 seconds
#
#
# Revision: 0
# Processed by: cddbd v1.5.2PL0 Copyright (c) Steve Scherf et al.
# Submitted via: FreeRIP 2.951 
#
DISCID=a10c410b
DTITLE=David Ryan Harris - The Bittersweet
DYEAR=2006
DGENRE=pop
TTITLE0=For You
TTITLE1=Turn Around
TTITLE2=All I Need
TTITLE3=So Real
TTITLE4=Sweetest Berry
TTITLE5=Pretty Girl
TTITLE6=Yesterday Shutting Down
TTITLE7=Hold My Fire
TTITLE8=If I had A Dime
TTITLE9=Forevermore
TTITLE10=Strong Enough
EXTD=
EXTT0=
EXTT1=
EXTT2=
EXTT3=
EXTT4=
EXTT5=
EXTT6=
EXTT7=
EXTT8=
EXTT9=
EXTT10=
PLAYORDER=
